# AST/ASF file generated using VICON BodyLanguage
# -----------------------------------------------
:version 1.10
:name VICON
:units
  mass 1.0
  length 0.45
  angle deg
:documentation
   .ast/.asf automatically generated from VICON data using
   VICON BodyBuilder and BodyLanguage model FoxedUp or BRILLIANT.MOD
:root
   order TX TY TZ RX RY RZ
   axis XYZ
   position 0 0 0  
   orientation 0 0 0 
:bonedata
  begin
     id 1 
     name lhipjoint
     direction 0.602128 -0.715006 0.355257 
     length 2.21237 
     axis 0 0 0  XYZ
  end
  begin
     id 2 
     name lfemur
     direction 0.34202 -0.939693 0  
     length 6.71649  
     axis 0 0 20  XYZ
    dof rx ry rz
    limits (-160.0 20.0)
           (-70.0 70.0)
           (-60.0 70.0)
  end
  begin
     id 3 
     name ltibia
     direction 0.34202 -0.939693 0   
     length 6.97123   
     axis 0 0 20   XYZ
    dof rx
    limits (-10.0 170.0)
  end
  begin
     id 4 
     name lfoot
     direction 0.0655697 -0.180151 0.981451   
     length 1.80924   
     axis -90 7.62852e-016 20   XYZ
    dof rx rz
    limits (-45.0 90.0)
           (-70.0 20.0)
  end
  begin
     id 5 
     name ltoes
     direction 1.53545e-011 -4.21827e-011 1   
     length 0.916331   
     axis -90 7.62852e-016 20   XYZ
    dof rx
    limits (-90.0 20.0)
  end
  begin
     id 6 
     name rhipjoint
     direction -0.625414 -0.698792 0.347201   
     length 2.2637  
     axis 0 0 0  XYZ 
  end
  begin
     id 7 
     name rfemur
     direction -0.34202 -0.939693 0   
     length 7.07595   
     axis 0 0 -20   XYZ
    dof rx ry rz
    limits (-160.0 20.0)
           (-70.0 70.0)
           (-70.0 60.0)
  end
  begin
     id 8 
     name rtibia
     direction -0.34202 -0.939693 0   
     length 7.22924   
     axis 0 0 -20   XYZ
    dof rx
    limits (-10.0 170.0)
 end
 begin
     id 9 
     name rfoot
     direction -0.0766747 -0.210662 0.974547   
     length 1.98482  
     axis -90 -7.62852e-016 -20   XYZ
    dof rx rz
    limits (-45.0 90.0)
           (-20.0 70.0)
  end
  begin
     id 10 
     name rtoes
     direction -1.53532e-011 -4.21867e-011 1   
     length 0.999842   
     axis -90 -7.62852e-016 -20   XYZ
    dof rx
    limits (-90.0 20.0)
  end
  begin
     id 11 
     name lowerback
     direction -0.0224668 0.997354 -0.0691422   
     length 2.09945   
     axis 0 0 0   XYZ
    dof rx ry rz
    limits (-20.0 45.0)
           (-30.0 30.0)
           (-30.0 30.0)
  end
  begin
     id 12 
     name upperback
     direction 0.0134698 0.998451 -0.0539888   
     length 2.09758   
     axis 0 0 0   XYZ
    dof rx ry rz
    limits (-20.0 45.0)
           (-30.0 30.0)
           (-30.0 30.0)
  end
  begin
     id 13 
     name thorax
     direction 0.0241905 0.99948 -0.0213333   
     length 2.10428   
     axis 0 0 0   XYZ
    dof rx ry rz
    limits (-20.0 45.0)
           (-30.0 30.0)
           (-30.0 30.0)
  end
  begin
     id 14 
     name lowerneck
     direction -0.00866847 0.995978 0.0891737   
     length 1.3959   
     axis 0 0 0   XYZ
    dof rx ry rz
    limits (-20.0 45.0)
           (-30.0 30.0)
           (-30.0 30.0)
  end
  begin
     id 15 
     name upperneck
     direction 0.0680679 0.992203 0.104404   
     length 1.39452   
     axis 0 0 0   XYZ
    dof rx ry rz
    limits (-20.0 45.0)
           (-30.0 30.0)
           (-30.0 30.0)
  end
  begin
     id 16
     name head
     direction 0.0242216 0.999358 0.0264054  
     length 1.40433  
     axis 0 0 0   XYZ
    dof rx ry rz
    limits (-20.0 45.0)
           (-30.0 30.0)
           (-30.0 30.0)
  end
  begin
     id 17 
     name lclavicle
     direction 0.929368 0.362991 -0.0671771  
     length 3.04887  
     axis 0 0 0   XYZ
    dof ry rz
    limits (-20.0 10.0)
           (0.0 20.0)
  end
  begin
     id 18 
     name lhumerus
     direction 1 -4.48967e-011 -7.13741e-028   
     length 4.77195   
     axis -180 -30 -90   XYZ
    dof rx ry rz
    limits (-60.0 90.0)
           (-90.0 90.0)
           (-90.0 90.0)
  end
  begin
     id 19
     name lradius
     direction 1 -4.48977e-011 3.60404e-027   
     length 2.98444   
     axis -180 -30 -90   XYZ
    dof rx
    limits (-10.0 170.0)
  end
  begin
     id 20
     name lwrist
     direction 1 -4.48997e-011 7.54877e-027   
     length 1.49222   
     axis -7.18178e-015 90 90   XYZ
    dof ry
    limits (-180.0 0.0)
 end
  begin
     id 21 
     name lhand
     direction 1 -4.489e-011 1.51105e-026   
     length 0.992285   
     axis -9.63605e-015 90 90   XYZ
    dof rx rz
    limits (-90.0 90.0)
           (-45.0 45.0)
  end
  begin
     id 22 
     name lfingers
     direction 1 -4.48998e-011 3.01948e-026   
     length 0.800006   
     axis -1.92718e-014 90 90   XYZ
    dof rx
    limits (0.0 90.0)
  end
  begin
     id 23
     name lthumb
     direction 0.707107 -6.34881e-011 0.707107   
     length 1.14865   
     axis -90 45 -3.53137e-014   XYZ
    dof rx rz
    limits (-45.0 45.0)
           (-45.0 45.0)
  end
  begin
     id 24 
     name rclavicle
     direction -0.945672 0.324529 0.0196374   
     length 3.4236  
     axis 0 0 0   XYZ 
    dof ry rz
    limits (-10.0 20.0)
           (-20.0 0.0)
  end
  begin
     id 25 
     name rhumerus
     direction -1 -4.4896e-011 1.02757e-029  
     length 4.62052   
     axis -180 30 90   XYZ
    dof rx ry rz
    limits (-90.0 60.0)
           (-90.0 90.0)
           (-90.0 90.0)
  end
  begin
     id 26 
     name rradius
     direction -1 -4.48982e-011 3.85962e-027   
     length 2.95332   
     axis -180 30 90   XYZ
    dof rx
    limits (-10.0 170.0)
  end
  begin
     id 27 
     name rwrist
     direction -1 -4.48961e-011 7.55118e-027   
     length 1.47666   
     axis -7.18178e-015 -90 -90   XYZ
    dof ry
    limits (-180.0 0.0)
  end
  begin
     id 28
     name rhand
     direction -1 -4.48984e-011 1.50994e-026   
     length 0.990956   
     axis -9.63605e-015 -90 -90   XYZ
    dof rx rz
    limits (-90.0 90.0)
           (-45.0 45.0)
  end
  begin
     id 29
     name rfingers
     direction -1 -4.4892e-011 3.02158e-026   
     length 0.798934   
     axis -1.92718e-014 -90 -90   XYZ
    dof rx
    limits (0.0 90.0)
  end
  begin
     id 30
     name rthumb
     direction -0.707107 -6.34916e-011 0.707107   
     length 1.14711   
     axis -90 -45 3.53137e-014   XYZ
    dof rx rz
    limits (-45.0 45.0)
           (-45.0 45.0)
  end
:hierarchy
  begin
    root lhipjoint rhipjoint lowerback
    lhipjoint lfemur
    lfemur ltibia
    ltibia lfoot
    lfoot ltoes
    rhipjoint rfemur
    rfemur rtibia
    rtibia rfoot
    rfoot rtoes
    lowerback upperback
    upperback thorax
    thorax lowerneck lclavicle rclavicle
    lowerneck upperneck
    upperneck head
    lclavicle lhumerus
    lhumerus lradius
    lradius lwrist
    lwrist lhand lthumb
    lhand lfingers
    rclavicle rhumerus
    rhumerus rradius
    rradius rwrist
    rwrist rhand rthumb
    rhand rfingers
  end

#!OML:ASF H:\ManfredObstacles\Project 1\Capture day 1\Session 1\Male.ASF
:FULLY-SPECIFIED
:DEGREES
1
root -14.8069 16.0608 38.1702 -169.161 -10.764 -178.846
lowerback -9.92917 -2.28795 -2.19858
upperback 1.21702 -2.89702 1.48073
thorax 7.04972 -1.54205 2.33391
lowerneck 2.55391 -2.40011 -4.81399
upperneck -13.0628 -3.10309 9.50681
head -4.06112 -2.07772 3.86663
rclavicle 1.16875e-014 7.51965e-015
rhumerus -37.2224 -26.6868 -72.8796
rradius 25.0219
rwrist 35.8601
rhand -3.04074 -8.06659
rfingers 7.12502
rthumb 22.6749 -36.7545
lclavicle 1.16875e-014 7.51965e-015
lhumerus -25.336 20.9993 82.9458
lradius 14.0559
lwrist -42.7901
lhand -6.64923 9.262
lfingers 7.12502
lthumb 19.2081 38.3334
rfemur -35.9666 -3.56319 17.6844
rtibia 28.6687
rfoot -10.4132 7.00775
rtoes 19.6235
lfemur 6.12841 -4.99083 -19.0597
ltibia 5.08889e-014
lfoot -8.5746 -6.56027
ltoes 8.41881
2
root -14.8163 16.0662 38.1741 -169.258 -10.7513 -178.828
lowerback -9.83232 -2.29697 -2.12126
upperback 1.23218 -2.91473 1.41832
thorax 7.00405 -1.54564 2.22483
lowerneck 2.5987 -2.43675 -4.98591
upperneck -13.1897 -3.14448 9.77831
head -4.09456 -2.11403 3.98563
rclavicle -1.73253e-014 4.77083e-015
rhumerus -37.486 -27.1479 -72.6233
rradius 24.8074
rwrist 36.1443
rhand -3.13212 -7.87048
rfingers 7.12502
rthumb 22.5872 -36.5691
lclavicle -1.73253e-014 4.77083e-015
lhumerus -25.8331 24.4846 81.0923
lradius 13.1617
lwrist -46.2736
lhand -6.50135 9.48293
lfingers 7.12502
lthumb 19.3503 38.5402
rfemur -35.7756 -3.64489 17.7226
rtibia 28.3719
rfoot -9.81922 7.06782
rtoes 17.6838
lfemur 6.07927 -4.97516 -19.107
ltibia 4.13472e-014
lfoot -8.4918 -6.45159
ltoes 9.61804
3
root -14.8186 16.0704 38.1783 -169.458 -10.7871 -178.461
lowerback -9.65965 -2.30081 -1.79259
upperback 1.23925 -2.96818 1.4846
thorax 6.90219 -1.56064 2.10706
lowerneck 2.50521 -2.48904 -5.16898
upperneck -13.1028 -3.20779 10.0155
head -4.03864 -2.14766 4.08782
rclavicle -5.65294e-016 -8.62228e-015
rhumerus -37.6372 -27.633 -72.3278
rradius 24.4358
rwrist 36.6044
rhand -3.16868 -7.83511
rfingers 7.12502
rthumb 22.5521 -36.538
lclavicle -5.65294e-016 -8.62228e-015
lhumerus -26.6637 27.7792 79.1095
lradius 12.4568
lwrist -49.5612
lhand -6.5359 9.36267
lfingers 7.12502
lthumb 19.3171 38.4232
rfemur -35.5677 -3.47404 18.0613
rtibia 28.2329
rfoot -9.31683 6.9644
rtoes 16.7204
lfemur 6.07013 -4.95108 -18.7441
ltibia -2.22639e-014
lfoot -8.43882 -6.2789
ltoes 10.4934
4
root -14.8366 16.0747 38.1891 -169.207 -10.7239 -179
lowerback -9.75402 -2.35712 -2.16963
upperback 1.16346 -2.9798 1.28311
thorax 6.88495 -1.57423 2.10325
lowerneck 2.52442 -2.56483 -5.15982
upperneck -13.1998 -3.31098 10.0524
head -4.06233 -2.2067 4.1042
rclavicle -5.31749e-014 8.15017e-015
rhumerus -37.7451 -27.9834 -72.0921
rradius 24.156
rwrist 36.9557
rhand -3.18643 -7.78527
rfingers 7.12502
rthumb 22.535 -36.4902
lclavicle -5.31749e-014 8.15017e-015
lhumerus -27.6094 30.8549 77.1076
lradius 11.8778
lwrist -52.7712
lhand -6.728 9.1709
lfingers 7.12502
lthumb 19.1324 38.2499
rfemur -35.705 -3.93627 17.5601
rtibia 28.0265
rfoot -8.57627 7.37654
rtoes 15.3247
lfemur 5.7436 -4.9757 -19.413
ltibia -7.95139e-014
lfoot -8.3899 -6.08042
ltoes 11.7709
5
root -14.8465 16.0787 38.1913 -169.301 -10.6922 -179.13
lowerback -9.6804 -2.3877 -2.31484
upperback 1.20004 -3.00073 1.24684
thorax 6.88903 -1.58919 2.14535
lowerneck 2.68118 -2.61278 -5.11303
upperneck -13.4933 -3.38136 10.0267
head -4.17357 -2.25709 4.10249
rclavicle 8.42971e-015 -2.13694e-015
rhumerus -37.8473 -28.1344 -71.9129
rradius 24.0456
rwrist 37.1183
rhand -2.91166 -7.90408
rfingers 7.12502
rthumb 22.7987 -36.5768
lclavicle 8.42971e-015 -2.13694e-015
lhumerus -28.5499 33.5675 75.2591
lradius 11.4673
lwrist -55.5274
lhand -6.87983 9.12039
lfingers 7.12502
lthumb 18.9864 38.2137
rfemur -35.4674 -3.96953 17.3699
rtibia 27.8238
rfoot -8.08502 7.42816
rtoes 13.7292
lfemur 5.75828 -4.96369 -19.6469
ltibia 4.13472e-014
lfoot -8.42306 -5.88301
ltoes 13.1777
